<?xml version="1.0" encoding="utf-8"?>
<!-- Generator: Adobe Illustrator 15.1.0, SVG Export Plug-In . SVG Version: 6.00 Build 0)  -->
<!DOCTYPE svg PUBLIC "-//W3C//DTD SVG 1.1//EN" "http://www.w3.org/Graphics/SVG/1.1/DTD/svg11.dtd">
<svg version="1.1" id="Layer_1" xmlns="http://www.w3.org/2000/svg" xmlns:xlink="http://www.w3.org/1999/xlink" x="0px" y="0px"
	 width="117.119px" height="230.716px" viewBox="-45.8 -163.3 120.1 232" enable-background="new -45.8 -159.3 117.1 232" xml:space="preserve">
<g id="breadboard">
	<g id="connector0pin">
		<rect x="10.104" y="66.822" fill="none" width="2.152" height="0.722"/>
	</g>
	<g id="connector1pin">
		<rect x="17.303" y="66.822" fill="none" width="2.154" height="0.722"/>
	</g>
	<g id="connector0leg">
		<path fill="#8C8C8C" d="M11.18,68.549c-0.825,0-1.494-0.669-1.494-1.494V42.44c0-0.825,0.669-1.494,1.494-1.494
			s1.494,0.669,1.494,1.494v24.615C12.674,67.88,12.005,68.549,11.18,68.549z"/>
	</g>
	<g id="connector1leg">
		<path fill="#8C8C8C" d="M18.381,68.549c-0.825,0-1.494-0.669-1.494-1.494V42.44c0-0.825,0.669-1.494,1.494-1.494
			s1.494,0.669,1.494,1.494v24.615C19.875,67.88,19.206,68.549,18.381,68.549z"/>
	</g>
	<g>
		<rect x="10.104" y="32.613" fill="#8C8C8C" width="2.15" height="9.827"/>
	</g>
	<g>
		<path fill="#8C8C8C" d="M19.457,42.44c0-1.174-1.064-2.104-2.089-2.991c-0.416-0.366-1.198-1.002-1.198-1.425v-5.471h-2.162v5.78
			c0,1.06,0.947,1.879,1.946,2.748c0.442,0.377,1.349,1.25,1.349,1.771"/>
	</g>

	<g id="light">
		<g>
			<path fill="#FCC038" d="M14-162.2c-28.6,0.7-56.6,23.8-58.4,52.9c-1.9,30.5,23.7,35.9,30.7,64.5c3.1,12.5,1.9,24.8,2.3,37.3H14
				V-162.2z"/>
			<path fill="#FFE91D" d="M14.2-162.2c28.6,0.7,56.6,23.8,58.4,52.9c1.9,30.5-23.7,35.9-30.7,64.5C38.7-32.2,39.9-20,39.5-7.5H14.2
				V-162.2z"/>
		</g>
		<g>
			<g>
				<path fill="#8E8E8E" d="M-7.6,22.3v19.9c0,6.7,6.8,12.1,15.1,12.1h12.8c8.3,0,15.1-5.4,15.1-12.1V22.3H-7.6z"/>
				<path fill="#656565" d="M13.8,22.3H-7.6v19.9c0,6.7,6.8,12.1,15.1,12.1h6.4V22.3z"/>
			</g>
			<g>
				<rect x="-7.6" y="22.3" fill="#747474" width="43" height="16.1"/>
				<rect x="-7.6" y="22.3" fill="#4B4B4B" width="21.4" height="16.1"/>
			</g>
			<g>
				<path fill="#8E8E8E" d="M-15.8-1.5v19.9c0,6.7,9.4,12.1,21,12.1H23c11.6,0,21-5.4,21-12.1V-1.5H-15.8z"/>
				<path fill="#656565" d="M13.8-1.5h-29.7v19.9c0,6.7,9.4,12.1,21,12.1h8.7V-1.5z"/>
			</g>
		</g>
	</g>
	
</g>
</svg>
